<svg width="189" height="33" fill="none" xmlns="http://www.w3.org/2000/svg">
  <g clip-path="url(#a)">
    <path d="M21.729 0 19.18 19.718 30.62 0h10.243s-7.49 21.512-11.219 32.135h-6.545c.724-2.11 7.631-22.11 7.631-22.11l-12.808 22.11h-6.687l2.707-22.016-7.946 22.016H0L11.329 0h10.416-.016ZM73.573 8.293c-.44 2.172-1.652 6.61-1.652 6.61-1.589-.897-3.571-1.275-5.538-.96a2.02 2.02 0 0 0-1.385.928c-.708 1.684 1.07 2.833 1.967 4.076 1.51 2.062 2.03 4.973 1.054 7.318-1.353 4.013-5.648 6.31-9.676 6.452-2.376.078-4.705-.315-6.766-.96l1.636-7.082s.22.126.268.142c1.935 1.212 4.437 2.172 6.765 1.149.551-.284.913-.834.929-1.417-.157-1.542-1.59-2.612-2.376-3.918-1.322-1.747-1.794-4.343-.96-6.452.787-2.675 3.241-5.445 6.01-6.169 3.022-1.023 6.735-.425 9.724.299v-.016ZM83.093 7.837c-.047.142.047.22.157.204 1.353.016 3.934 0 3.934 0s-1.464 4.344-2.219 6.39c0 0-2.738 0-4.138.078l-.157.3-2.99 8.67c-.173.614-.346 1.322.016 1.841.708.834 1.872.473 2.738.284.456-.095.865-.236 1.306-.362-.992 2.234-2.046 4.469-3.069 6.656-.472.347-1.07.394-1.62.504-2.313.425-5.366.865-7.332-.63-1.338-1.384-.819-3.556-.33-5.177 2.706-7.6 5.333-15.312 8.024-22.881 0 0 5.145-1.306 7.694-1.826l-2.03 5.949h.016ZM104.712 10.638c-1.542-3.1-5.224-3.446-8.387-3.021-.362.063-.755.141-1.117.22-5.192 1.306-9.236 6.184-11.077 11.031-.724 2.046-1.495 4.328-1.62 6.594v1.196c.047.929.236 1.873.582 2.785 1.054 2.314 3.556 3.164 5.947 3.337 2.093.063 4.185-.063 6.168-.41.818-.141 1.605-.33 2.392-.55 1.07-2.172 3.068-6.751 3.068-6.751-.63.141-1.259.425-1.888.598-1.07.283-2.329.676-3.572.865-1.542.22-3.1.158-4.358-.787-.929-.755-1.007-2.03-.834-3.163.126-.33.126-.724.409-.975h12.918c.786-2.33 1.919-4.926 1.982-7.507v-.566a7.525 7.525 0 0 0-.613-2.88v-.016Zm-6.735 6.39-.031.062H92.03c.016-.66 1.605-3.1 3.02-3.745.41-.19.976-.425 1.417-.425.63.016 1.274.126 1.636.692.582 1.008.205 2.377-.141 3.415h.015ZM119.533 15.5c-.173-.062-.314-.11-.456-.172-1.699-.74-3.556 0-4.815 1.038-1.211 1.196-1.699 1.637-2.8 4.139-.535 1.212-4.06 11.614-4.06 11.614h-7.112l3.242-9.3c.676-2.03 1.4-4.076 2.108-6.154l3.005-8.64h6.813s-.598 1.559-.708 2.361c1.841-1.668 4.248-3.682 6.907-2.675l-2.139 7.79h.015Z" fill="#fff"/>
    <path d="M137.659 8.325s-1.243 4.878-1.841 7.27c-1.023-.362-1.967-.897-3.052-1.101-2.455-.551-4.705.44-6.168 2.376-1.353 1.841-2.219 3.934-2.25 6.357 0 .787.362 1.495.975 1.983 2.376 1.26 5.051-.047 7.254-.708-1.023 2.424-3.273 7.302-3.273 7.302-3.634.897-9.063 1.983-11.58-1.637-1.888-3.241-.787-7.349.283-10.606 1.825-5.524 6.215-11.881 12.745-12.165 2.36 0 4.909.079 6.923.913l-.016.016ZM188.402 8.876c-.472-.756-1.306-1.18-2.093-1.401-3.556-.834-6.671.472-9.126 3.289-.424-1.48-1.069-2.833-2.533-3.226-3.996-.992-6.813 1.164-7.678 2.014-.393.378-.787.756-1.212 1.117l.819-2.816h-6.75l-1.841 5.35-2.927 8.482-2.643 7.601c-.299.897-.661 1.951-.944 2.864h7.112c1.384-4.091 3.886-11.409 4.61-13.345 1.022-2.722 2.659-4.925 4.39-4.296 1.762.646.236 4.548-.158 5.681l-4.169 11.96h7.19c1.369-4.028 3.949-11.613 4.689-13.58 1.023-2.723 2.659-4.926 4.39-4.297 1.762.646.236 4.548-.158 5.681l-4.248 12.196h7.018s4.453-12.59 6.529-18.79c.394-1.416.583-3.194-.267-4.484Z" fill="#D11141"/>
    <path d="M184.358 30.718c0-.33.063-.63.189-.913.126-.283.283-.519.504-.724.204-.204.456-.361.723-.487.284-.11.583-.173.897-.173a2.31 2.31 0 0 1 1.621.66c.205.205.378.441.503.724a2.256 2.256 0 0 1 0 1.81 2.13 2.13 0 0 1-.503.724 2.418 2.418 0 0 1-.74.488c-.283.11-.582.173-.881.173-.314 0-.613-.063-.897-.173a2.3 2.3 0 0 1-1.227-1.196 2.183 2.183 0 0 1-.189-.897v-.016Zm.362 0c0 .268.047.535.158.771.094.236.236.44.409.614.173.173.377.315.613.41.236.094.488.157.756.157.267 0 .519-.048.755-.158.236-.094.44-.236.613-.409.174-.173.315-.378.41-.63.094-.235.157-.503.157-.77 0-.268-.047-.536-.157-.772a1.823 1.823 0 0 0-.41-.613 1.823 1.823 0 0 0-.613-.41 2.015 2.015 0 0 0-.755-.141c-.268 0-.52.047-.756.157-.236.095-.44.236-.613.41a1.741 1.741 0 0 0-.409.629 2.114 2.114 0 0 0-.158.787v-.032Zm1.086-1.322h.975c.315 0 .551.063.709.19.157.125.22.314.22.581 0 .236-.063.41-.205.52-.141.11-.11.094-.283.204l.551 1.165h-.394l-.519-1.133h-.676v1.133h-.362v-2.644l-.016-.016Zm.362 1.18h.724c.078 0 .157-.03.236-.047a.423.423 0 0 0 .157-.126.542.542 0 0 0 .016-.472c-.032-.063-.079-.094-.142-.126a.42.42 0 0 0-.189-.047H186.199v.85l-.031-.032ZM56.392 9.6c-.63-1.18-1.889-1.795-3.069-2.062-3.272-.63-6.687 0-9.755.66-.204.064-1.967.457-2.58.678-.819 1.967-1.747 3.886-2.502 5.87 1.448-.52 2.927-1.15 4.484-1.574.205-.063.425-.126.661-.19 1.479-.282 3.225-.755 4.689-.22.267.158.488.425.55.709.08.96-.471 1.825-1.274 2.344-1.416.897-3.02 1.244-4.626 1.637-.74.157-1.479.346-2.171.567-3.399.897-6.829 3.273-8.056 6.766-.394 1.023-.74 2.267-.771 3.494v.22c.016 1.07.33 2.109 1.133 2.912 2.659 2.454 6.718.944 9.708.125 0 .048.047.551.047.551h7.175c.409-1.306.928-2.58 1.353-3.887l4.296-12.479c.409-1.29 1.038-2.738 1.1-4.17v-.362a3.88 3.88 0 0 0-.392-1.59Zm-11.77 16.995s-4.657 2.203-5.098 0c-.613-3.147 6.845-4.973 6.845-4.973l-1.763 4.973h.016Z" fill="#fff"/>
    <path d="M156.729 9.662c-.629-1.18-1.888-1.794-3.068-2.061-3.273-.63-6.687 0-9.756.66-.204.064-1.966.457-2.58.677-.818 1.968-1.746 3.887-2.502 5.87 1.448-.519 2.927-1.149 4.485-1.573.204-.063.424-.126.66-.19 1.479-.283 3.226-.755 4.689-.22.268.158.488.425.551.709.079.96-.472 1.825-1.275 2.344-1.416.897-3.021 1.244-4.625 1.637-.74.157-1.479.346-2.172.566-3.398.898-6.828 3.274-8.056 6.767-.393 1.023-.739 2.266-.771 3.494v.22c.016 1.07.331 2.109 1.133 2.912 2.659 2.454 6.719.944 9.708.125 0 .048.047.551.047.551h7.175c.409-1.306.929-2.58 1.353-3.887l4.296-12.479c.409-1.29 1.038-2.738 1.101-4.17v-.362a3.864 3.864 0 0 0-.393-1.59ZM144.96 26.658s-4.658 2.203-5.098 0c-.614-3.147 6.844-4.973 6.844-4.973l-1.762 4.973h.016Z" fill="#D11141"/>
  </g>
  <defs>
    <clipPath id="a">
      <path fill="#fff" d="M0 0h189v33H0z"/>
    </clipPath>
  </defs>
</svg>
