<svg width="218" height="151" viewBox="0 0 218 151" fill="none" xmlns="http://www.w3.org/2000/svg">
<g clip-path="url(#clip0_3072_2233)">
<path d="M25.4996 53.0143C21.3724 53.0143 17.7248 52.3896 14.5569 51.1403C11.3889 49.891 8.72298 48.162 6.55896 45.9534C4.41726 43.7224 2.78868 41.0788 1.67321 38.0224C0.557735 34.966 0 31.6308 0 28.0166C0 24.4025 0.557735 21.0784 1.67321 18.0443C2.78868 14.9879 4.41726 12.3443 6.55896 10.1133C8.72298 7.88239 11.3889 6.14226 14.5569 4.89293C17.7248 3.64361 21.3724 3.01894 25.4996 3.01894C29.6046 3.01894 33.241 3.64361 36.4089 4.89293C39.5992 6.14226 42.2652 7.88239 44.4069 10.1133C46.5709 12.3443 48.2106 14.9879 49.3261 18.0443C50.4416 21.0784 50.9993 24.4025 50.9993 28.0166C50.9993 31.6308 50.4416 34.966 49.3261 38.0224C48.2106 41.0788 46.5709 43.7224 44.4069 45.9534C42.2652 48.162 39.5992 49.891 36.4089 51.1403C33.241 52.3896 29.6046 53.0143 25.4996 53.0143ZM25.4996 45.4514C28.266 45.4514 30.6754 45.0164 32.7279 44.1463C34.7804 43.2763 36.4759 42.0604 37.8144 40.4987C39.1753 38.9371 40.1792 37.0966 40.8262 34.9772C41.4955 32.8578 41.8301 30.5376 41.8301 28.0166C41.8301 25.518 41.4955 23.209 40.8262 21.0896C40.1792 18.9479 39.1753 17.0962 37.8144 15.5345C36.4759 13.9729 34.7804 12.757 32.7279 11.8869C30.6754 11.0169 28.266 10.5818 25.4996 10.5818C22.7333 10.5818 20.3239 11.0169 18.2714 11.8869C16.2189 12.757 14.5123 13.9729 13.1514 15.5345C11.8128 17.0962 10.8089 18.9479 10.1396 21.0896C9.49265 23.209 9.16916 25.518 9.16916 28.0166C9.16916 30.5376 9.49265 32.8578 10.1396 34.9772C10.8089 37.0966 11.8128 38.9371 13.1514 40.4987C14.5123 42.0604 16.2189 43.2763 18.2714 44.1463C20.3239 45.0164 22.7333 45.4514 25.4996 45.4514Z" fill="black"/>
<path d="M67.4462 52.0104H59.0467V17.8101H67.4462V23.0305C67.8032 21.9596 68.3386 21.0561 69.0525 20.3199C69.7887 19.5614 70.5919 18.9479 71.4619 18.4794C72.3543 18.0109 73.2913 17.6762 74.2729 17.4754C75.2545 17.2523 76.1915 17.1408 77.0839 17.1408C79.4487 17.1408 81.5792 17.4977 83.4755 18.2116C85.3718 18.9255 86.9781 19.9741 88.2944 21.3573C89.6106 22.7405 90.6257 24.4694 91.3396 26.5442C92.0535 28.619 92.4104 31.0061 92.4104 33.7055V52.0104H84.011V33.7055C84.011 30.7607 83.3194 28.4294 81.9362 26.7115C80.553 24.9937 78.4894 24.1348 75.7453 24.1348C72.979 24.1348 70.9042 24.9937 69.521 26.7115C68.1378 28.4294 67.4462 30.7607 67.4462 33.7055V52.0104Z" fill="black"/>
<path d="M101.161 1.27881H109.56V39.8295C109.56 40.5434 109.571 41.2126 109.594 41.8373C109.616 42.462 109.694 43.0085 109.828 43.477C109.962 43.9455 110.162 44.3248 110.43 44.6148C110.72 44.8825 111.122 45.0164 111.635 45.0164H112.739V52.0104H108.422C106.615 52.0104 105.21 51.6423 104.206 50.9061C103.224 50.1476 102.51 49.1883 102.064 48.0282C101.618 46.8458 101.35 45.5518 101.261 44.1463C101.194 42.7185 101.161 41.3242 101.161 39.9633V1.27881Z" fill="black"/>
<path d="M120.854 17.8101H129.253V52.0104H120.854V17.8101ZM120.117 7.60352C120.117 6.93424 120.24 6.29842 120.485 5.69607C120.753 5.09372 121.11 4.56945 121.556 4.12326C122.003 3.67707 122.527 3.33127 123.129 3.08587C123.732 2.81816 124.367 2.6843 125.037 2.6843C125.706 2.6843 126.342 2.81816 126.944 3.08587C127.546 3.33127 128.071 3.67707 128.517 4.12326C128.963 4.56945 129.309 5.09372 129.554 5.69607C129.822 6.29842 129.956 6.93424 129.956 7.60352C129.956 8.27281 129.822 8.90862 129.554 9.51098C129.309 10.1133 128.963 10.6376 128.517 11.0838C128.071 11.53 127.546 11.8869 126.944 12.1546C126.342 12.4 125.706 12.5227 125.037 12.5227C124.367 12.5227 123.732 12.4 123.129 12.1546C122.527 11.8869 122.003 11.53 121.556 11.0838C121.11 10.6376 120.753 10.1133 120.485 9.51098C120.24 8.90862 120.117 8.27281 120.117 7.60352Z" fill="black"/>
<path d="M148.365 52.0104H139.966V17.8101H148.365V23.0305C148.722 21.9596 149.258 21.0561 149.971 20.3199C150.708 19.5614 151.511 18.9479 152.381 18.4794C153.273 18.0109 154.21 17.6762 155.192 17.4754C156.173 17.2523 157.11 17.1408 158.003 17.1408C160.368 17.1408 162.498 17.4977 164.394 18.2116C166.291 18.9255 167.897 19.9741 169.213 21.3573C170.53 22.7405 171.545 24.4694 172.259 26.5442C172.972 28.619 173.329 31.0061 173.329 33.7055V52.0104H164.93V33.7055C164.93 30.7607 164.238 28.4294 162.855 26.7115C161.472 24.9937 159.408 24.1348 156.664 24.1348C153.898 24.1348 151.823 24.9937 150.44 26.7115C149.057 28.4294 148.365 30.7607 148.365 33.7055V52.0104Z" fill="black"/>
<path d="M198.812 45.6857C200.106 45.6857 201.277 45.5853 202.325 45.3845C203.374 45.1837 204.333 44.9272 205.203 44.6148C206.073 44.2802 206.854 43.9009 207.546 43.477C208.237 43.0532 208.873 42.5958 209.453 42.105L214.54 47.1581C212.487 49.1882 210.145 50.6161 207.512 51.4415C204.902 52.2669 202.002 52.6797 198.812 52.6797C195.867 52.6797 193.268 52.2335 191.014 51.3411C188.761 50.4264 186.876 49.1771 185.359 47.5931C183.842 46.0092 182.693 44.1352 181.912 41.9712C181.131 39.8071 180.741 37.4535 180.741 34.9102C180.741 32.3893 181.131 30.0468 181.912 27.8828C182.693 25.7188 183.842 23.8448 185.359 22.2608C186.876 20.6545 188.761 19.4052 191.014 18.5128C193.268 17.5981 195.867 17.1408 198.812 17.1408C201.756 17.1408 204.378 17.5981 206.676 18.5128C208.996 19.4275 210.937 20.7772 212.498 22.562C214.082 24.3244 215.242 26.5219 215.979 29.1544C216.737 31.7646 217.038 34.7764 216.882 38.1897H189.81C189.81 38.7921 189.955 39.5283 190.245 40.3983C190.557 41.2461 191.059 42.0715 191.751 42.8747C192.442 43.6555 193.357 44.3248 194.495 44.8825C195.655 45.418 197.094 45.6857 198.812 45.6857ZM207.813 31.5973C207.813 30.9726 207.668 30.2364 207.378 29.3887C207.088 28.5409 206.598 27.7266 205.906 26.9458C205.214 26.1649 204.289 25.5068 203.128 24.9714C201.968 24.4137 200.529 24.1348 198.812 24.1348C197.094 24.1348 195.655 24.4137 194.495 24.9714C193.335 25.5068 192.409 26.1649 191.717 26.9458C191.026 27.7266 190.535 28.5409 190.245 29.3887C189.955 30.2364 189.81 30.9726 189.81 31.5973H207.813Z" fill="black"/>
<path d="M25.5034 96.6754L39.028 64.0233H51.0069V110.2H42.3125V77.5479L28.8524 110.2H22.1545L8.69435 77.5479V110.2H0V64.0233H11.9789L25.5034 96.6754Z" fill="black"/>
<path d="M76.4497 104.114C77.6948 104.114 78.8219 104.017 79.8308 103.824C80.8398 103.631 81.7629 103.384 82.6001 103.084C83.4374 102.761 84.1887 102.397 84.8542 101.989C85.5197 101.581 86.1316 101.141 86.6897 100.668L91.5843 105.531C89.6093 107.484 87.3552 108.858 84.822 109.653C82.3103 110.447 79.5195 110.844 76.4497 110.844C73.616 110.844 71.115 110.415 68.9468 109.556C66.7786 108.676 64.9646 107.474 63.5048 105.949C62.045 104.425 60.9394 102.622 60.188 100.54C59.4367 98.4572 59.061 96.1924 59.061 93.7451C59.061 91.3193 59.4367 89.0652 60.188 86.9829C60.9394 84.9005 62.045 83.0972 63.5048 81.573C64.9646 80.0274 66.7786 78.8252 68.9468 77.9665C71.115 77.0863 73.616 76.6462 76.4497 76.6462C79.2834 76.6462 81.8058 77.0863 84.017 77.9665C86.2496 78.8467 88.1173 80.1454 89.62 81.8628C91.1442 83.5588 92.2605 85.6733 92.969 88.2065C93.6989 90.7182 93.9887 93.6163 93.8384 96.9009H67.7875C67.7875 97.4805 67.9271 98.1889 68.2062 99.0261C68.5067 99.8419 68.9897 100.636 69.6552 101.409C70.3207 102.16 71.2009 102.804 72.2957 103.341C73.412 103.856 74.7967 104.114 76.4497 104.114ZM85.1118 90.5572C85.1118 89.9561 84.9723 89.2477 84.6932 88.4319C84.4141 87.6161 83.9419 86.8326 83.2764 86.0812C82.6109 85.3299 81.72 84.6966 80.6037 84.1813C79.4874 83.6446 78.1027 83.3763 76.4497 83.3763C74.7967 83.3763 73.412 83.6446 72.2957 84.1813C71.1794 84.6966 70.2885 85.3299 69.623 86.0812C68.9575 86.8326 68.4852 87.6161 68.2062 88.4319C67.9271 89.2477 67.7875 89.9561 67.7875 90.5572H85.1118Z" fill="black"/>
<path d="M98.3504 77.2903H104.694V67.6621H112.777V77.2903H122.179V84.0203H112.777V95.6772C112.777 96.9438 112.819 98.0923 112.905 99.1227C113.013 100.153 113.227 101.044 113.549 101.795C113.871 102.525 114.344 103.094 114.966 103.502C115.589 103.91 116.437 104.114 117.51 104.114C118.347 104.114 119.12 104.039 119.829 103.889C120.537 103.738 121.235 103.502 121.922 103.18L123.725 109.395C122.373 109.996 121.063 110.382 119.796 110.554C118.53 110.747 117.338 110.844 116.222 110.844C113.904 110.844 111.993 110.511 110.49 109.846C109.009 109.18 107.839 108.204 106.98 106.915C106.122 105.627 105.521 104.039 105.177 102.15C104.855 100.261 104.694 98.103 104.694 95.6772V84.0203H98.3504V77.2903Z" fill="black"/>
<path d="M146.044 83.3763C145.164 83.3763 144.252 83.43 143.307 83.5373C142.363 83.6446 141.418 83.7949 140.473 83.9881C139.529 84.1813 138.595 84.4282 137.672 84.7288C136.77 85.0078 135.922 85.3299 135.128 85.6948L132.069 79.9308C133.958 78.8359 136.126 78.0202 138.574 77.4835C141.021 76.9253 143.511 76.6462 146.044 76.6462C148.942 76.6462 151.336 76.936 153.225 77.5157C155.114 78.0738 156.606 78.954 157.701 80.1562C158.796 81.3584 159.558 82.904 159.987 84.7932C160.438 86.6608 160.664 88.9042 160.664 91.5232V110.2H152.581L152.549 105.016C151.647 107.098 150.252 108.59 148.363 109.492C146.495 110.393 144.338 110.844 141.89 110.844C140.109 110.844 138.445 110.64 136.899 110.232C135.353 109.824 134.012 109.18 132.874 108.3C131.736 107.42 130.835 106.293 130.169 104.919C129.525 103.545 129.203 101.903 129.203 99.9922C129.203 98.3177 129.504 96.8472 130.105 95.5806C130.727 94.314 131.586 93.2299 132.681 92.3283C133.776 91.4266 135.064 90.6967 136.545 90.1386C138.026 89.559 139.626 89.1403 141.343 88.8827C143.082 88.6037 144.907 88.4641 146.817 88.4641C148.728 88.4426 150.649 88.5392 152.581 88.7539C152.581 87.7235 152.474 86.8648 152.259 86.1778C152.066 85.4909 151.712 84.9434 151.197 84.5356C150.703 84.1062 150.037 83.8057 149.2 83.6339C148.363 83.4622 147.311 83.3763 146.044 83.3763ZM137.318 99.6702C137.318 100.529 137.479 101.248 137.801 101.828C138.123 102.386 138.552 102.837 139.089 103.18C139.626 103.524 140.248 103.77 140.956 103.921C141.665 104.05 142.406 104.114 143.178 104.114C144.617 104.114 145.915 103.921 147.075 103.534C148.255 103.148 149.254 102.643 150.069 102.021C150.907 101.398 151.54 100.679 151.969 99.8634C152.399 99.0476 152.603 98.1996 152.581 97.3195V93.9705C151.851 93.9276 150.971 93.8954 149.941 93.8739C148.91 93.8525 147.826 93.8847 146.688 93.9705C145.551 94.0349 144.423 94.1745 143.307 94.3892C142.191 94.6038 141.182 94.9366 140.28 95.3874C139.4 95.8167 138.681 96.3856 138.123 97.0941C137.586 97.781 137.318 98.6397 137.318 99.6702Z" fill="black"/>
<path d="M169.394 61.3828H177.477V98.4787C177.477 99.1657 177.487 99.8097 177.509 100.411C177.53 101.012 177.605 101.538 177.734 101.989C177.863 102.439 178.056 102.804 178.314 103.084C178.593 103.341 178.979 103.47 179.473 103.47H180.536V110.2H176.382C174.643 110.2 173.29 109.846 172.324 109.137C171.38 108.407 170.693 107.484 170.263 106.368C169.834 105.23 169.577 103.985 169.491 102.633C169.426 101.259 169.394 99.917 169.394 98.6075V61.3828Z" fill="black"/>
<path d="M212.166 85.727C210.578 84.9112 208.903 84.3209 207.143 83.9559C205.404 83.5695 203.729 83.3763 202.119 83.3763C200.23 83.3763 198.846 83.6232 197.965 84.1169C197.085 84.5892 196.645 85.3406 196.645 86.371C196.645 86.8862 196.795 87.3371 197.096 87.7235C197.418 88.1099 197.858 88.4534 198.416 88.7539C198.974 89.033 199.651 89.2906 200.445 89.5268C201.261 89.7414 202.173 89.9454 203.182 90.1386C205.393 90.5679 207.357 91.0402 209.075 91.5554C210.814 92.0492 212.274 92.704 213.454 93.5197C214.656 94.314 215.569 95.3015 216.191 96.4822C216.835 97.663 217.157 99.1227 217.157 100.862C217.157 102.622 216.814 104.135 216.127 105.402C215.461 106.647 214.506 107.678 213.261 108.493C212.016 109.288 210.502 109.878 208.721 110.264C206.96 110.651 204.996 110.844 202.828 110.844C201.282 110.844 199.769 110.747 198.287 110.554C196.828 110.361 195.422 110.093 194.069 109.749C192.738 109.406 191.493 108.998 190.334 108.526C189.196 108.053 188.187 107.538 187.307 106.98L190.72 101.151C191.579 101.602 192.502 102.01 193.489 102.375C194.477 102.74 195.486 103.051 196.516 103.309C197.568 103.567 198.62 103.77 199.672 103.921C200.745 104.05 201.797 104.114 202.828 104.114C203.987 104.114 204.964 104.039 205.758 103.889C206.552 103.738 207.186 103.513 207.658 103.212C208.152 102.89 208.506 102.515 208.721 102.085C208.935 101.634 209.043 101.119 209.043 100.54C209.043 99.96 208.86 99.4877 208.495 99.1227C208.152 98.7363 207.658 98.4143 207.014 98.1567C206.37 97.8991 205.597 97.6844 204.695 97.5127C203.794 97.3195 202.806 97.1263 201.733 96.9331C199.393 96.5037 197.386 95.9777 195.711 95.3552C194.058 94.7326 192.695 94.0027 191.622 93.1655C190.57 92.3068 189.797 91.3193 189.303 90.203C188.81 89.0867 188.563 87.8094 188.563 86.371C188.563 84.9971 188.799 83.7198 189.271 82.5391C189.765 81.3369 190.548 80.3064 191.622 79.4477C192.695 78.5676 194.091 77.8806 195.808 77.3869C197.525 76.8931 199.629 76.6462 202.119 76.6462C204.781 76.6462 207.218 76.9038 209.429 77.4191C211.662 77.9128 213.712 78.7393 215.58 79.8986L212.166 85.727Z" fill="black"/>
<path d="M101.458 146.527C101.458 148.012 102.678 149.258 104.189 149.258C105.701 149.258 106.921 148.012 106.921 146.527C106.921 145.042 105.701 143.795 104.189 143.795C102.678 143.795 101.458 145.042 101.458 146.527Z" fill="black"/>
<path d="M117.036 135.654C117.036 129.82 120.298 125.285 126.689 125.285C131.118 125.285 134.512 127.884 134.512 127.884L136.687 125.126C136.687 125.126 133.292 121.785 126.689 121.785C118.097 121.785 112.793 127.619 112.793 135.654C112.793 143.689 118.097 149.523 126.689 149.523C133.292 149.523 136.687 146.182 136.687 146.182L134.512 143.424C134.512 143.424 131.118 146.023 126.689 146.023C120.298 146.023 117.036 141.488 117.036 135.654Z" fill="black"/>
<path d="M156.163 121.785C147.571 121.785 142.267 127.619 142.267 135.654C142.267 143.689 147.571 149.523 156.163 149.523C164.755 149.523 170.059 143.689 170.059 135.654C170.059 127.619 164.755 121.785 156.163 121.785ZM165.816 135.654C165.816 141.488 162.554 146.023 156.163 146.023C149.772 146.023 146.51 141.488 146.51 135.654C146.51 129.82 149.772 125.285 156.163 125.285C162.554 125.285 165.816 129.82 165.816 135.654Z" fill="black"/>
<path d="M178.053 148.993H182.136V134.726C182.136 129.369 184.099 125.285 188.846 125.285C193.593 125.285 195.555 129.369 195.555 134.726V148.993H199.639V134.726C199.639 129.369 201.601 125.285 206.348 125.285C211.095 125.285 213.057 129.369 213.057 134.726V148.993H217.141V134.726C217.141 126.373 213.376 121.785 206.348 121.785C200.222 121.785 198.313 127.354 198.313 127.354C196.987 124.596 194.335 121.785 188.846 121.785C183.462 121.785 182.136 126.373 182.136 126.373V122.315H178.053V148.993Z" fill="black"/>
<path d="M0 121.838H78.8793C86.0209 121.838 91.8103 127.627 91.8103 134.769V148.993H12.931C5.78943 148.993 0 143.204 0 136.062V121.838Z" fill="#0270A2"/>
</g>
<defs>
<clipPath id="clip0_3072_2233">
<rect width="217.241" height="150" fill="white" transform="translate(0 0.286255)"/>
</clipPath>
</defs>
</svg>
